<svg xmlns="http://www.w3.org/2000/svg" viewBox="0 0 139.38619 145.76602"><defs><style>.cls-1{fill:#20d489;}</style></defs><g id="Camada_2" data-name="Camada 2"><g id="Camada_2-2" data-name="Camada 2"><path class="cls-1" d="M22.392,84.47141c0-4.78819-3.81641-6.57432-8.95025-6.57432H5.23269L0,103.59851H5.50415l1.89358-9.43009h3.22165l3.36883,9.43009h5.79728L15.72116,93.41508C19.55705,92.15513,22.392,89.27359,22.392,84.47141ZM11.08046,89.89385H8.29989l1.53433-7.72218h2.75284c2.81843,0,4.36692.93695,4.36692,3.09341C16.954,88.05727,14.97107,89.89385,11.08046,89.89385Z"/><path class="cls-1" d="M23.63575,96.89905c0-7.45072,5.13837-13.33785,10.63547-13.33785a4.87285,4.87285,0,0,1,4.33058,2.56969h.09435l.85521-2.09642h4.40323l-3.986,19.564H35.4988l.08476-2.55606h-.09435a9.28371,9.28371,0,0,1-6.23324,3.02933C25.75134,104.07177,23.63575,101.51067,23.63575,96.89905ZM35.905,96.77292l1.42587-6.93407a3.10556,3.10556,0,0,0-2.67665-1.87341c-2.76647,0-5.3301,3.57577-5.3301,8.24238,0,2.39763.90668,3.45971,2.3275,3.45971C32.97805,99.66753,34.62087,98.99951,35.905,96.77292Z"/><path class="cls-1" d="M49.04149,84.03447h4.46933l-.08476,2.62065h.16044c1.94556-1.66048,4.17972-3.09392,6.70652-3.09392,3.2917,0,4.70848,1.76291,4.70848,5.02888a13.4241,13.4241,0,0,1-.32089,2.78412l-2.489,12.2243h-5.49l2.35626-11.54668a9.32863,9.32863,0,0,0,.3214-1.87442A1.80379,1.80379,0,0,0,57.354,88.1602c-1.23716,0-2.45515.80729-4.18274,2.55556l-2.5596,12.88274h-5.49Z"/><path class="cls-1" d="M72.77919,77.287l5.44966-.30276L75.145,91.97916h.14632l7.53045-7.94469h6.07582l-8.12834,8.54561L85.4924,103.5985H79.98823l-3.01268-7.89019-3.2246,3.1812-.97732,4.709h-5.49Z"/><path class="cls-1" d="M94.16112,77.8971h5.84373l1.85574,11.86052.68014,4.61564h.16044l2.43649-4.61564,6.58239-11.86052h5.84424l-5.23272,25.7014h-5.17368l2.17159-10.21164c.548-2.58432,1.5732-6.097,2.38553-8.60212h-.12765l-3.23015,5.92446-6.1616,10.54213H99.97054L98.07241,90.7092l-.831-5.92446h-.12765c-.23613,2.51924-.53836,6.08289-1.03888,8.60212L93.96939,103.5985h-5.041Z"/><polygon class="cls-1" points="134.942 92.544 135.845 88.01 127.298 88.01 127.302 87.99 121.834 87.903 118.638 103.598 134.541 103.598 135.443 99.064 125.031 99.064 126.409 92.544 134.942 92.544"/><polygon class="cls-1" points="123.871 77.594 121.961 86.975 127.443 86.975 128.407 82.129 138.484 82.129 139.386 77.594 123.871 77.594"/><path class="cls-1" d="M98.5901,46.59229h3.149c.063-.40311.12864-.80573.184-1.21027H98.80654C98.74057,45.78723,98.66711,46.19027,98.5901,46.59229Z"/><path class="cls-1" d="M98.12392,48.71025h3.247c.05651-.30231.11331-.60456.16694-.9077H98.34109C98.27372,48.10663,98.19786,48.40814,98.12392,48.71025Z"/><polygon class="cls-1" points="53.641 21.277 55.285 24.608 58.961 25.142 56.301 27.735 56.929 31.397 53.641 29.668 50.352 31.397 50.98 27.735 48.32 25.142 51.997 24.608 53.641 21.277"/><polygon class="cls-1" points="68.31 17.546 70.56 22.105 75.592 22.837 71.951 26.386 72.81 31.397 68.31 29.031 63.809 31.397 64.669 26.386 61.028 22.837 66.06 22.105 68.31 17.546"/><polygon class="cls-1" points="82.384 21.277 84.029 24.608 87.705 25.142 85.045 27.735 85.673 31.397 82.384 29.668 79.096 31.397 79.724 27.735 77.064 25.142 80.74 24.608 82.384 21.277"/><path class="cls-1" d="M49.19926,73.71808l13.655-15.93084.16759-.20484-.24715.12993.95359-5.56032-4.03966-3.93773,5.58284-.8113,2.49663-5.05877L70.26488,47.403l.97023.141L83.46094,32.60131H44.83223c-.15217.98258-.28461,1.83782-.459,2.96348-2.95977,0-5.8844-.00448-8.80888.00154a3.49635,3.49635,0,0,0-3.70291,3.4035,28.30083,28.30083,0,0,0,.1349,4.97352,48.80141,48.80141,0,0,0,3.45639,12.75294C37.72748,62.15162,41.002,66.612,47.14416,68.18975c1.75855.45174,1.8691,1.15019,1.07154,2.73992a2.58529,2.58529,0,0,0-.02283,2.14324A1.88666,1.88666,0,0,0,49.19926,73.71808ZM43.56241,62.62187A14.4226,14.4226,0,0,1,39.20792,56.947a45.54639,45.54639,0,0,1-4.2834-16.00536c-.14015-1.63569-.019-1.73482,1.5939-1.74023,2.61827-.00878,5.23655-.00246,8.02951-.00246.35106,8.76541,1.52467,17.22137,5.046,25.41861A9.58628,9.58628,0,0,1,43.56241,62.62187Z"/><path class="cls-1" d="M98.58892,35.84978c-2.10007-.06183-4.20276-.037-6.30423-.04379-2.36188-.00755-2.36065-.00463-2.681-2.3645a4.64461,4.64461,0,0,0-.14323-.53761H85.16594L72.83411,48.03494l3.316.4819-4.03966,3.93774.95361,5.56032-4.99341-2.6252-2.15333,1.13207L53.783,71.41053c.73122.73978,1.36123,1.43978,2.06956,2.0405a17.71146,17.71146,0,0,0,3.71648,2.86666c2.2117,1.014,1.85287,4.04117,2.19606,6.0737a4.97221,4.97221,0,0,1,4.73556,1.89424l2.385-7.0384h4.7538l-.01156.05721a29.07782,29.07782,0,0,0,6.66255-5.36159c.97088.646,1.81531,1.29542,2.73932,1.7985.95929.52236,2.03685.76412,2.9001-.15941a1.88615,1.88615,0,0,0-.098-2.72066c-.81145-.96779-.35293-1.61133.52882-2.099a7.39856,7.39856,0,0,1,1.48183-.51942,14.81119,14.81119,0,0,0,8.58377-6.71467,37.50228,37.50228,0,0,0,4.7-11.60768H97.808a39.73442,39.73442,0,0,1-3.48134,8.59626c-1.93,3.50664-4.683,6.09254-8.974,6.39874a5.46911,5.46911,0,0,1-.675-.07924c3.54658-8.04524,4.55493-16.53651,5.03766-25.35187,2.26212,0,4.43127-.01064,6.60026.00247,3.12567.01865,3.165.0299,2.86,3.09329-.05311.53328-.11819,1.0633-.1894,1.5916h3.09052c.17566-1.49956.29921-3.005.36717-4.50635C102.55382,37.23986,101.01185,35.92115,98.58892,35.84978Z"/><path class="cls-1" d="M8.47586,72.34247A61.09688,61.09688,0,0,1,7.7665,63.063,60.44054,60.44054,0,0,1,123.86734,39.54234,60.04823,60.04823,0,0,1,128.61658,63.063a61.1607,61.1607,0,0,1-.59267,8.46074l-3.4208-.47951a57.67229,57.67229,0,0,0,.55919-7.98123,56.97076,56.97076,0,1,0-113.94152,0,57.64849,57.64849,0,0,0,.6688,8.75329Z"/><path class="cls-1" d="M5.86874,73.895a65.78422,65.78422,0,0,1-.74012-9.838A64.3663,64.3663,0,0,1,23.597,18.76426,62.80712,62.80712,0,0,1,43.64224,5.0351a62.36421,62.36421,0,0,1,49.09859,0,62.807,62.807,0,0,1,20.04529,13.72916A64.36618,64.36618,0,0,1,131.25445,64.057a65.85428,65.85428,0,0,1-.61842,8.97l-.85536-.118a65.00511,65.00511,0,0,0,.61037-8.852c0-34.845-27.90273-63.19345-62.19958-63.19345S5.992,29.212,5.992,64.057a64.91175,64.91175,0,0,0,.73046,9.70845Z"/><path class="cls-1" d="M80.247,127.58087c11.68717-2.51368,23.00658-8.93235,33.65381-19.09151l-.59621-.6247C101.5049,119.12348,89.97206,124.6508,79.498,126.78913l-1.46867-1.55247c.26909-.04845.5383-.09538.807-.148,11.62061-2.276,22.88131-8.48054,33.4695-18.44153l-2.36681-2.51586c-11.12614,10.46715-22.74783,16.5152-34.742,18.11152l-.08805-.09308-.62454.18123a52.18972,52.18972,0,0,1-22.83954-2.53485A69.8379,69.8379,0,0,1,26.098,104.19332l-2.49285,2.391a72.04514,72.04514,0,0,0,26.8209,16.44638c.23243.078.46494.15169.69741.22671L49.81069,124.645a74.699,74.699,0,0,1-26.31675-16.13071l-.61907.60192a75.64392,75.64392,0,0,0,26.28529,16.21648l-9.31227,9.84349,13.61547-4.841-.30257,13.918,11.36613-15.4074L75.55072,145.766l-.30258-13.918L88.86362,136.689Z"/></g></g></svg>