<svg xmlns="http://www.w3.org/2000/svg" viewBox="0 0 845.65244 884.3587"><defs><style>.cls-1{fill:#20d489;}.cls-2{fill:#daa520;}</style></defs><g id="Camada_2" data-name="Camada 2"><g id="Camada_2-2" data-name="Camada 2"><path class="cls-1" d="M135.85181,512.4859c0-29.04986-23.15406-39.88623-54.30091-39.88623H31.74658L0,628.52948H33.39355l11.48829-57.2121H64.42749l20.4386,57.2121h35.17212L95.37988,566.74689C118.6521,559.10278,135.85181,541.62061,135.85181,512.4859Zm-68.627,32.89777H50.35522l9.30872-46.85028H76.36536c17.09936,0,26.49389,5.68451,26.49389,18.76764C102.85925,534.24121,90.8291,545.38367,67.22485,545.38367Z"/><path class="cls-1" d="M143.39752,587.88408c0-45.20339,31.17432-80.92039,64.52509-80.92039,10.91591,0,21.54714,6.07936,26.27349,15.59022h.57243l5.18858-12.71891H266.6714L242.48864,628.52947H215.37029l.51426-15.50757h-.57242c-10.97408,11.25875-25.26945,18.37889-37.81693,18.37889C156.23274,631.40079,143.39752,615.8626,143.39752,587.88408Zm74.437-.76528L226.48517,545.05c-4.0376-7.90378-10.57-11.36589-16.23918-11.36589-16.78405,0-32.33754,21.69407-32.33754,50.00626,0,14.54638,5.50081,20.99,14.12089,20.99C200.077,604.68038,210.044,600.62747,217.83448,587.1188Z"/><path class="cls-1" d="M297.53349,509.835h27.11529l-.51426,15.8994h.97343c11.80363-10.07411,25.35822-18.77071,40.68825-18.77071,19.97067,0,28.56626,10.69551,28.56626,30.51006a81.443,81.443,0,0,1-1.94687,16.89119l-15.10044,74.16453H344.00723L358.30261,558.476c1.0622-4.81206,1.94992-8.164,1.94992-11.372,0-8.1303-4.32534-12.23831-12.28729-12.23831-7.50583,0-14.89535,4.89778-25.37658,15.50452l-15.529,78.15927H273.75174Z"/><path class="cls-1" d="M441.54949,468.89831l33.063-1.83684L455.903,558.03521h.88773l45.687-48.20021H539.3396l-49.31445,51.846,28.655,66.84848H485.28655l-18.27788-47.86961-19.56354,19.30029-5.92936,28.56932H408.20785Z"/><path class="cls-1" d="M571.27308,472.59969h35.45375l11.25876,71.95746,4.12637,28.003h.97343l14.78209-28.003,39.93522-71.95746h35.45681L681.51276,628.52947h-31.3886l13.175-61.95377c3.32436-15.679,9.54453-36.99043,14.47292-52.18883h-.77446L657.40041,550.3304l-37.38225,63.95879H606.51867L595.00279,550.3304l-5.04165-35.94353h-.77446c-1.4326,15.28411-3.2662,36.90472-6.30282,52.18883l-12.774,61.95377H539.52632Z"/><polygon class="cls-1" points="818.69 561.464 824.167 533.953 772.311 533.953 772.336 533.831 739.164 533.305 719.777 628.529 816.257 628.529 821.73 601.019 758.558 601.019 766.921 561.464 818.69 561.464"/><polygon class="cls-1" points="751.523 470.763 739.936 527.677 773.194 527.677 779.04 498.273 840.179 498.273 845.652 470.763 751.523 470.763"/><path class="cls-2" d="M598.14361,282.6742h19.10482c.38251-2.44561.78047-4.8883,1.11659-7.34265h-18.9083C599.05651,277.78993,598.61082,280.2352,598.14361,282.6742Z"/><path class="cls-2" d="M595.31528,295.52383h19.6993c.34284-1.83409.68748-3.66785,1.01284-5.507H596.63287C596.22414,291.8617,595.76388,293.691,595.31528,295.52383Z"/><polygon class="cls-1" points="325.437 129.086 335.411 149.297 357.715 152.538 341.576 168.27 345.386 190.484 325.437 179.996 305.487 190.484 309.297 168.27 293.158 152.538 315.462 149.297 325.437 129.086"/><polygon class="cls-2" points="414.435 106.451 428.087 134.113 458.614 138.549 436.524 160.081 441.739 190.484 414.435 176.13 387.131 190.484 392.345 160.081 370.256 138.549 400.783 134.113 414.435 106.451"/><polygon class="cls-1" points="499.824 129.086 509.799 149.297 532.103 152.538 515.964 168.27 519.774 190.484 499.824 179.996 479.875 190.484 483.685 168.27 467.546 152.538 489.85 149.297 499.824 129.086"/><path class="cls-1" d="M298.49064,447.2457l82.84454-96.652,1.01677-1.24275-1.49943.78832,5.7854-33.73432-24.5085-23.89016,33.87089-4.92214,15.147-30.69143,15.14791,30.69143,5.88635.85543,74.17378-90.65676H271.996c-.92321,5.96131-1.72676,11.15-2.78475,17.97938-17.95686,0-35.70051-.02723-53.44326.0093-12.50254.02431-21.80039,8.05376-22.46546,20.649a171.70471,171.70471,0,0,0,.81845,30.17426,296.07775,296.07775,0,0,0,20.96984,77.37173c13.80085,33.09738,33.667,60.1586,70.93157,69.7305,10.66911,2.74072,11.33978,6.97819,6.501,16.623-1.81751,3.621-2.086,9.76663-.13848,13.003C293.35585,444.94541,295.91248,446.453,298.49064,447.2457ZM264.292,379.92529c-12.165-8.8134-20.05032-21.19806-26.41856-34.4293-14.7728-30.69154-23.082-63.21169-25.98732-97.1041-.85027-9.92371-.11507-10.52514,9.67016-10.558,15.885-.05321,31.77-.0149,48.71484-.0149,2.12988,53.17952,9.25013,104.48159,30.61379,154.21409C286.17017,392.28385,274.7096,387.47308,264.292,379.92529Z"/><path class="cls-2" d="M598.13644,217.49969c-12.74107-.37511-25.498-.22453-38.24762-.26565-14.32946-.04582-14.322-.02812-16.26573-14.34536a28.17047,28.17047,0,0,0-.869-3.26171H516.69956l-74.81689,91.79979,20.11822,2.92368-24.5085,23.89016,5.78551,33.73432-30.29491-15.927-13.06419,6.86827-73.61863,90.32972c4.43634,4.4882,8.25858,8.73508,12.556,12.37962,7.25772,6.15682,14.13484,13.53442,22.54781,17.392,13.41834,6.15211,11.2413,24.51769,13.32345,36.849,17.31173-1.45462,22.98442,5.74619,28.7305,11.49227L417.92753,468.657h28.8412l-.07013.3471c15.8588-10.26981,31.02362-20.91752,40.42153-32.52866,5.89027,3.91938,11.01341,7.85926,16.61933,10.91145,5.82,3.16916,12.35755,4.63588,17.59486-.96713,4.98667-5.33467,3.81271-11.25015-.59482-16.50616-4.923-5.87157-2.1412-9.77593,3.20837-12.73457,2.74072-1.51534,5.94361-2.245,8.9902-3.15135,22.70589-6.75365,39.76016-20.77343,52.07749-40.73771a227.52406,227.52406,0,0,0,28.51472-70.42347H593.3985a241.06692,241.06692,0,0,1-21.12121,52.15323c-11.7094,21.2747-28.41186,36.96331-54.44512,38.82105A33.1878,33.1878,0,0,1,513.737,393.36c21.517-48.8103,27.63465-100.32659,30.56337-153.80918,13.72422,0,26.88442-.06453,40.04362.015,18.96332.11316,19.202.18139,17.35174,18.76691-.32223,3.23537-.71706,6.451-1.14909,9.65616h18.75011c1.06572-9.09776,1.81527-18.23091,2.22757-27.33987C622.19141,225.93327,612.8363,217.93272,598.13644,217.49969Z"/><path class="cls-2" d="M51.42285,438.8999a370.66662,370.66662,0,0,1-4.30371-56.29834A366.69125,366.69125,0,0,1,751.5,239.90234a364.31168,364.31168,0,0,1,28.81348,142.69922,371.05455,371.05455,0,0,1-3.59571,51.33106l-20.7539-2.90918a349.89394,349.89394,0,0,0,3.39258-48.42188c0-190.58642-155.05372-345.64013-345.64063-345.64013S68.07617,192.01514,68.07617,382.60156a349.74675,349.74675,0,0,0,4.05762,53.106Z"/><path class="cls-2" d="M35.60547,448.31934a399.11176,399.11176,0,0,1-4.49024-59.687,390.50839,390.50839,0,0,1,112.04688-274.79A381.04807,381.04807,0,0,1,264.77637,30.54785a378.36176,378.36176,0,0,1,297.87988,0,381.04818,381.04818,0,0,1,121.61426,83.29444,390.50832,390.50832,0,0,1,112.04687,274.79,399.539,399.539,0,0,1-3.75195,54.4209l-5.18945-.71582a394.38005,394.38005,0,0,0,3.70312-53.70508c0-211.4038-169.28515-383.39306-377.36328-383.39306S36.35352,177.22852,36.35352,388.63232a393.816,393.816,0,0,0,4.43164,58.90088Z"/><path class="cls-2" d="M486.85657,774.02985c70.90576-15.25043,139.5802-54.19233,204.17663-115.8277l-3.61718-3.79c-71.58838,68.307-141.55787,101.84112-205.10376,114.81427l-8.9104-9.41876c1.63256-.29395,3.26586-.57868,4.896-.898,70.502-13.80811,138.82031-51.45117,203.0586-111.88428l-14.35938-15.26367c-67.50207,63.504-138.0105,100.19733-210.77869,109.88214l-.5343-.5647-3.78906,1.09949q-68.06763,8.04932-138.5669-15.37885c-93.09472-31.02148-154.38378-94.0288-154.99218-94.66162l-15.124,14.50586c2.60645,2.71875,64.95313,66.97071,162.72168,99.77979,1.41016.4732,2.8208.92029,4.2312,1.37543l-7.96447,8.41888c-96.06678-33.271-159.02478-97.20844-159.66321-97.86462l-3.75586,3.65185c.64063.65961,63.43689,64.47736,159.47205,98.385l-56.4972,59.72021L324.36084,790.74l-1.83569,84.44043,68.958-93.47632,66.88111,102.6546-1.8357-84.44043,82.60474,29.37061Z"/></g></g></svg>